Coordinates
version=1
nRows=9
nColumns=36
inDegrees=yes

Units are S.I. units (second, meters, Newtons, ...)
If the header above contains a line with 'inDegrees', this indicates whether rotational values are in degrees (yes) or radians (no).

endheader
time	pelvis_tilt	pelvis_list	pelvis_rotation	pelvis_tx	pelvis_ty	pelvis_tz	hip_flexion_r	hip_adduction_r	hip_rotation_r	knee_angle_r	knee_angle_r_beta	ankle_angle_r	subtalar_angle_r	mtp_angle_r	hip_flexion_l	hip_adduction_l	hip_rotation_l	knee_angle_l	knee_angle_l_beta	ankle_angle_l	subtalar_angle_l	mtp_angle_l	lumbar_extension	lumbar_bending	lumbar_rotation	arm_flex_r	arm_add_r	arm_rot_r	elbow_flex_r	pro_sup_r	arm_flex_l	arm_add_l	arm_rot_l	elbow_flex_l	pro_sup_l
      0.00000000	     -0.74122881	     -2.69992722	     -0.67384619	     -0.98492641	      1.26507710	     -0.06849043	      5.19923497	      4.23117919	      3.83130800	     10.93264130	      0.19081059	      2.29590072	    -17.37512200	     -6.18422011	      0.41319867	     -2.26525464	      4.46178779	      5.30896961	      0.09265900	      8.44632565	    -11.24630942	     -6.18422011	     -4.63982041	      5.24191823	      0.56243745	     -0.76439775	     -9.40768090	     19.43337047	      8.30485760	     57.32777008	     29.68782870	    -16.01227350	     22.98133223	    149.48379710	     92.84361991
      0.00416670	     -3.00719680	     -2.49904222	     -0.53289299	     -0.99022361	      1.26102600	     -0.06464586	      8.11702601	      4.30492452	      3.75914163	     11.56005886	      0.20176109	      5.60418254	    -14.10062214	     -6.60407353	      3.47479736	     -1.99655893	      6.21350916	      5.30309428	      0.09255646	      6.72925595	    -12.34462153	     -6.60407353	     -0.82812349	      4.78533510	      2.99200587	     -2.66918868	     -9.01064840	     19.69413710	      6.82056567	     60.28208804	     32.75173264	    -15.49477648	     16.43160566	    149.63925398	     86.34219773
      0.00833330	     -4.49142949	     -1.99831154	     -0.86327353	     -0.99018325	      1.25210976	     -0.07350669	     10.03012307	      3.46955142	      2.98406807	     11.91198942	      0.20790344	      6.88533879	    -13.21300242	     -6.96824123	      5.74436539	     -1.15775335	      5.88954536	      6.32095385	      0.11032146	      6.92128010	    -12.39627751	     -6.96824123	      0.99492444	      4.23225496	      2.85006761	     -2.70361275	     -8.93226512	     14.02521251	      5.78853694	     83.54517745	     34.24491205	    -17.40939905	     20.21614058	    149.64389106	     83.62877681
      0.01250000	     -4.36390096	     -1.69549535	     -1.00077839	     -0.99039696	      1.25451818	     -0.07348014	     10.09941332	      2.94033860	      2.48891283	     12.17653522	      0.21252063	      7.62293053	    -12.70386378	     -7.04241543	      5.23363493	     -0.58987052	      6.52096278	      5.59163817	      0.09759250	      6.24166195	    -13.57686767	     -7.04241543	      0.95920087	      3.65844166	      4.23503111	     -3.46144496	     -8.67542373	     12.33709011	      5.86425687	     82.33457589	     33.91740116	    -17.86213681	     22.15667082	    149.68247037	     82.32214969
      0.01666670	     -4.30046353	     -1.58192355	     -1.28006419	     -0.99038734	      1.25487406	     -0.07307081	     10.22389796	      2.71225240	      2.65641282	     12.44143031	      0.21714392	      8.08484208	    -12.27426338	     -7.28155718	      5.14125497	     -0.33772273	      6.77199315	      5.53285411	      0.09656652	      6.36416216	    -14.22663042	     -7.28155718	      1.22412748	      3.64458613	      6.00755227	     -4.38512500	     -8.35175792	     -1.31730330	      6.88408207	     98.17169962	     33.68434438	    -17.63451992	     19.42837812	    149.71623274	     80.61923881
      0.02083330	     -4.11792829	     -1.47916608	     -1.26052688	     -0.99078700	      1.25645712	     -0.07309372	     10.03364003	      2.55834582	      2.56431038	     12.28098005	      0.21434354	      8.23385821	    -11.92469089	     -7.31958415	      4.84459876	     -0.09261581	      7.54953302	      5.18672822	      0.09052548	      6.41355513	    -14.63227501	     -7.31958415	      1.04308548	      3.53521280	      6.63291937	     -4.30152433	     -8.23071293	     -1.38242843	      7.20443118	     95.70186733	     33.50275744	    -17.41971612	     19.03909312	    149.73085824	     78.97543187
      0.02500000	     -3.99703274	     -1.42158727	     -1.29664024	     -0.99040607	      1.25959646	     -0.07299538	      9.76024944	      2.47446540	      2.82813076	     12.00324314	      0.20949611	      8.28770164	    -11.70902139	     -7.41001282	      4.72234527	      0.01453159	      8.04247585	      5.12041222	      0.08936805	      6.35104319	    -14.87849400	     -7.41001282	      0.88052610	      3.47651158	      6.92997282	     -4.34734127	     -8.13335780	     -3.37249906	      7.96045404	     99.97800273	     32.83759702	    -17.34779797	     18.21320012	    149.73875376	     76.93886190
      0.02916670	     -3.38565457	     -1.43911916	     -1.23979124	     -0.99076611	      1.26436885	     -0.07292954	      8.81873872	      2.50310805	      2.89377035	     11.35391325	      0.19816317	      7.84209082	    -11.65543462	     -7.46570032	      3.89481705	      0.01403415	      8.51208826	      4.75091930	      0.08291918	      6.07397246	    -14.92182374	     -7.46570032	     -0.11105495	      3.27401584	      7.11360666	     -3.89209650	     -8.11467943	     -3.16368883	      8.45208114	     99.08211641	     32.67334588	    -17.27820532	     18.09092117	    149.74702565	     76.50011702
      0.03333330	     -3.04998333	     -1.43890321	     -1.05428003	     -0.99082366	      1.26367551	     -0.07287871	      8.16949772	      2.52392082	      2.66893487	     10.83239768	      0.18906101	      7.54171703	    -11.43223866	     -7.47143627	      3.40860009	      0.01755415	      9.02165833	      4.50107445	      0.07855857	      5.79838656	    -14.99569485	     -7.47143627	     -1.20084457	      3.28947876	      5.88390035	     -2.82739219	     -8.05034057	     -3.59437734	      8.58873373	     96.89419194	     31.92893473	    -17.56198556	     21.64662160	    149.72073910	     75.88674318
